<svg width="48" height="48" viewBox="0 0 48 48" fill="none" xmlns="http://www.w3.org/2000/svg">
<path fill-rule="evenodd" clip-rule="evenodd" d="M13.5098 14.7305C19.0327 14.7309 23.0176 18.5577 23.0176 24.002C23.0173 29.4459 19.0325 33.273 13.5098 33.2734C8.02593 33.2734 4.0393 29.4462 4.03906 24.002C4.03906 18.5574 8.02577 14.7305 13.5098 14.7305ZM13.5098 19.6621C11.0637 19.6621 9.60352 21.5164 9.60352 24.002C9.6037 26.4873 11.0638 28.3418 13.5098 28.3418C15.9946 28.3413 17.4549 26.4869 17.4551 24.002C17.4551 21.5167 15.9947 19.6626 13.5098 19.6621Z" fill="#18181B"/>
<path d="M36.5938 14.7324C36.4709 16.6599 36.3465 18.7112 35.8945 21.582C37.945 20.5562 39.8332 19.7772 42.418 18.916L43.9336 23.7168C41.4316 24.455 39.6269 24.9064 37.207 25.2344C38.3962 26.2601 39.7092 27.6951 41.8418 30.3203L37.8223 33.2734C36.633 31.7562 35.6071 29.9921 34.0898 27.3262C32.5727 30.0741 31.5475 31.8386 30.4395 33.2734L26.502 30.3203C28.7165 27.5321 30.111 26.0553 31.1367 25.1523C28.5938 24.6598 26.6663 24.2085 24.3691 23.6348L25.8867 18.916C28.9222 19.9823 30.8498 20.8031 32.2441 21.582C31.8339 18.3415 31.6699 16.0444 31.6699 14.7324H36.5938Z" fill="#18181B"/>
</svg>
