<svg width="112" height="48" viewBox="0 0 112 48" fill="none" xmlns="http://www.w3.org/2000/svg">
<path d="M15.5218 17.4956C13.0514 17.4956 11.1574 18.4029 9.83986 19.9289L9.59987 17.908H3.78613V36.2609H9.83868V25.6616C9.83868 23.4345 11.2798 22.2385 13.0914 22.2385C14.8619 22.2385 16.1383 23.2283 16.1383 25.6616V36.2609H22.1908V25.4142C22.192 20.0939 19.3922 17.4956 15.5218 17.4956Z" fill="#18181B"/>
<path d="M34.2548 17.4131C28.5316 17.4131 24.373 21.4136 24.373 27.1051C24.373 32.7965 28.5316 36.797 34.2548 36.797C40.0191 36.797 44.1776 32.7965 44.1776 27.1051C44.1776 21.4136 40.0191 17.4131 34.2548 17.4131ZM34.2548 31.6417C31.702 31.6417 30.1786 29.7033 30.1786 27.1051C30.1786 24.5068 31.702 22.5684 34.2548 22.5684C36.8487 22.5684 38.3721 24.5068 38.3721 27.1051C38.3721 29.7033 36.8487 31.6417 34.2548 31.6417Z" fill="#18181B"/>
<path d="M56.8597 17.4955C54.8833 17.4955 53.1129 18.1142 52.0012 18.9803V7.41199H46.3604V36.262H50.1025H51.22H52.0023V35.2463C53.0329 36.0464 54.5881 36.7157 56.6961 36.7157C61.884 36.7157 65.9603 32.7152 65.9603 27.065C65.9591 21.2486 62.1299 17.4955 56.8597 17.4955ZM56.0774 31.6005C53.4834 31.6005 51.96 29.6621 51.96 27.0638C51.96 24.4655 53.4834 22.5271 56.0774 22.5271C58.6713 22.5271 60.1947 24.4655 60.1947 27.0638C60.1947 29.6621 58.6713 31.6005 56.0774 31.6005Z" fill="#18181B"/>
<path d="M87.7805 17.9079H82.6879C82.6879 17.9079 82.5914 19.309 82.5891 19.3066C81.7339 18.2779 79.7987 17.5367 77.5282 17.5367C72.258 17.5367 68.1406 21.4548 68.1406 27.105C68.1406 32.9614 72.011 36.7557 77.2812 36.7557C79.7516 36.7557 81.8515 35.7659 82.7985 34.6524L83.0867 36.6732L88.4393 36.0959C88.4393 36.0959 87.7805 31.6417 87.7805 29.1671V17.9079ZM78.0223 31.6417C75.4284 31.6417 73.905 29.7033 73.905 27.105C73.905 24.5067 75.4284 22.5683 78.0223 22.5683C80.6163 22.5683 82.1397 24.5067 82.1397 27.105C82.1397 29.7033 80.6163 31.6417 78.0223 31.6417Z" fill="#18181B"/>
<path d="M101.198 18.0898C103.724 17.7469 105.609 17.2756 108.22 16.5026L106.636 11.4851C103.938 12.3854 101.969 13.2008 99.8279 14.2731C100.298 11.2707 100.427 9.12725 100.556 7.11108H95.4187C95.4187 8.48387 95.5905 10.8854 96.0175 14.2731C94.5623 13.4577 92.5495 12.601 89.3815 11.4851L87.7969 16.4166C90.1944 17.0175 92.2072 17.4889 94.8611 18.0038C93.7906 18.9477 92.3354 20.4913 90.0226 23.4077L94.1329 26.495C95.2893 24.9938 96.3587 23.1497 97.9433 20.2769C99.5279 23.0648 100.597 24.909 101.839 26.495L106.036 23.4077C103.81 20.6622 102.441 19.1621 101.198 18.0898Z" fill="#18181B"/>
</svg>
